<mxfile host="app.diagrams.net" agent="Mozilla/5.0 (Windows NT 10.0; Win64; x64) AppleWebKit/537.36 (KHTML, like Gecko) Chrome/129.0.0.0 Safari/537.36" version="24.7.17">
  <diagram name="Page-1" id="FBY74WaSxsNW2TUMmk0D">
    <mxGraphModel dx="3039" dy="1929" grid="0" gridSize="10" guides="1" tooltips="1" connect="1" arrows="1" fold="1" page="0" pageScale="1" pageWidth="827" pageHeight="1169" math="0" shadow="0">
      <root>
        <mxCell id="0" />
        <mxCell id="1" parent="0" />
        <mxCell id="Jd2IswQnN16Qa1Pe7M-v-8" style="edgeStyle=none;curved=1;rounded=0;orthogonalLoop=1;jettySize=auto;html=1;exitX=0;exitY=1;exitDx=0;exitDy=0;entryX=0.5;entryY=0;entryDx=0;entryDy=0;fontSize=12;startSize=8;endSize=8;" edge="1" parent="1" source="Jd2IswQnN16Qa1Pe7M-v-1" target="Jd2IswQnN16Qa1Pe7M-v-4">
          <mxGeometry relative="1" as="geometry" />
        </mxCell>
        <mxCell id="Jd2IswQnN16Qa1Pe7M-v-9" style="edgeStyle=none;curved=1;rounded=0;orthogonalLoop=1;jettySize=auto;html=1;exitX=0.25;exitY=1;exitDx=0;exitDy=0;fontSize=12;startSize=8;endSize=8;" edge="1" parent="1" source="Jd2IswQnN16Qa1Pe7M-v-1" target="Jd2IswQnN16Qa1Pe7M-v-7">
          <mxGeometry relative="1" as="geometry" />
        </mxCell>
        <mxCell id="Jd2IswQnN16Qa1Pe7M-v-10" style="edgeStyle=none;curved=1;rounded=0;orthogonalLoop=1;jettySize=auto;html=1;exitX=0.75;exitY=1;exitDx=0;exitDy=0;entryX=0.5;entryY=0;entryDx=0;entryDy=0;fontSize=12;startSize=8;endSize=8;" edge="1" parent="1" source="Jd2IswQnN16Qa1Pe7M-v-1" target="Jd2IswQnN16Qa1Pe7M-v-6">
          <mxGeometry relative="1" as="geometry" />
        </mxCell>
        <mxCell id="Jd2IswQnN16Qa1Pe7M-v-11" style="edgeStyle=none;curved=1;rounded=0;orthogonalLoop=1;jettySize=auto;html=1;exitX=1;exitY=1;exitDx=0;exitDy=0;entryX=0.5;entryY=0;entryDx=0;entryDy=0;fontSize=12;startSize=8;endSize=8;" edge="1" parent="1" source="Jd2IswQnN16Qa1Pe7M-v-1" target="Jd2IswQnN16Qa1Pe7M-v-5">
          <mxGeometry relative="1" as="geometry" />
        </mxCell>
        <mxCell id="Jd2IswQnN16Qa1Pe7M-v-1" value="Data Collection (Back-end, Load Balancer)" style="rounded=0;whiteSpace=wrap;html=1;" vertex="1" parent="1">
          <mxGeometry x="-554" y="-171" width="291" height="54" as="geometry" />
        </mxCell>
        <mxCell id="Jd2IswQnN16Qa1Pe7M-v-3" value="Admin Access (Front-end)" style="rounded=0;whiteSpace=wrap;html=1;" vertex="1" parent="1">
          <mxGeometry x="907.5" y="-380" width="196" height="60" as="geometry" />
        </mxCell>
        <mxCell id="Jd2IswQnN16Qa1Pe7M-v-4" value="DC 1" style="ellipse;whiteSpace=wrap;html=1;aspect=fixed;" vertex="1" parent="1">
          <mxGeometry x="-603" y="-40" width="80" height="80" as="geometry" />
        </mxCell>
        <mxCell id="Jd2IswQnN16Qa1Pe7M-v-5" value="DC 4" style="ellipse;whiteSpace=wrap;html=1;aspect=fixed;" vertex="1" parent="1">
          <mxGeometry x="-253" y="-42" width="80" height="80" as="geometry" />
        </mxCell>
        <mxCell id="Jd2IswQnN16Qa1Pe7M-v-6" value="DC 3" style="ellipse;whiteSpace=wrap;html=1;aspect=fixed;" vertex="1" parent="1">
          <mxGeometry x="-376" y="-40" width="80" height="80" as="geometry" />
        </mxCell>
        <mxCell id="Jd2IswQnN16Qa1Pe7M-v-7" value="DC 2" style="ellipse;whiteSpace=wrap;html=1;aspect=fixed;" vertex="1" parent="1">
          <mxGeometry x="-488" y="-42" width="80" height="80" as="geometry" />
        </mxCell>
        <mxCell id="Jd2IswQnN16Qa1Pe7M-v-13" style="edgeStyle=none;curved=1;rounded=0;orthogonalLoop=1;jettySize=auto;html=1;fontSize=12;startSize=8;endSize=8;" edge="1" parent="1" source="Jd2IswQnN16Qa1Pe7M-v-12">
          <mxGeometry relative="1" as="geometry">
            <mxPoint x="-132" y="-2" as="targetPoint" />
          </mxGeometry>
        </mxCell>
        <mxCell id="Jd2IswQnN16Qa1Pe7M-v-34" style="edgeStyle=none;curved=1;rounded=0;orthogonalLoop=1;jettySize=auto;html=1;fontSize=12;startSize=8;endSize=8;" edge="1" parent="1" source="Jd2IswQnN16Qa1Pe7M-v-12" target="Jd2IswQnN16Qa1Pe7M-v-30">
          <mxGeometry relative="1" as="geometry" />
        </mxCell>
        <mxCell id="Jd2IswQnN16Qa1Pe7M-v-12" value="Secrets" style="shape=cylinder3;whiteSpace=wrap;html=1;boundedLbl=1;backgroundOutline=1;size=15;" vertex="1" parent="1">
          <mxGeometry x="292" y="-161" width="124" height="80" as="geometry" />
        </mxCell>
        <mxCell id="Jd2IswQnN16Qa1Pe7M-v-26" style="edgeStyle=none;curved=1;rounded=0;orthogonalLoop=1;jettySize=auto;html=1;exitX=1;exitY=0;exitDx=0;exitDy=15;exitPerimeter=0;entryX=0;entryY=0.5;entryDx=0;entryDy=0;fontSize=12;startSize=8;endSize=8;" edge="1" parent="1" source="Jd2IswQnN16Qa1Pe7M-v-14" target="Jd2IswQnN16Qa1Pe7M-v-16">
          <mxGeometry relative="1" as="geometry" />
        </mxCell>
        <mxCell id="Jd2IswQnN16Qa1Pe7M-v-14" value="Raw Data Storage" style="shape=cylinder3;whiteSpace=wrap;html=1;boundedLbl=1;backgroundOutline=1;size=15;" vertex="1" parent="1">
          <mxGeometry x="-71" y="363" width="305" height="173" as="geometry" />
        </mxCell>
        <mxCell id="Jd2IswQnN16Qa1Pe7M-v-15" value="Horizontal scale" style="text;html=1;align=center;verticalAlign=middle;whiteSpace=wrap;rounded=0;fontSize=16;" vertex="1" parent="1">
          <mxGeometry x="-816" y="-19" width="213" height="30" as="geometry" />
        </mxCell>
        <mxCell id="Jd2IswQnN16Qa1Pe7M-v-28" style="edgeStyle=none;curved=1;rounded=0;orthogonalLoop=1;jettySize=auto;html=1;exitX=1;exitY=0.5;exitDx=0;exitDy=0;fontSize=12;startSize=8;endSize=8;" edge="1" parent="1" source="Jd2IswQnN16Qa1Pe7M-v-16" target="Jd2IswQnN16Qa1Pe7M-v-27">
          <mxGeometry relative="1" as="geometry" />
        </mxCell>
        <mxCell id="Jd2IswQnN16Qa1Pe7M-v-16" value="Credit Score Calculation" style="rounded=0;whiteSpace=wrap;html=1;" vertex="1" parent="1">
          <mxGeometry x="337" y="368" width="397" height="60" as="geometry" />
        </mxCell>
        <mxCell id="Jd2IswQnN16Qa1Pe7M-v-18" style="edgeStyle=none;curved=1;rounded=0;orthogonalLoop=1;jettySize=auto;html=1;fontSize=12;startSize=8;endSize=8;exitX=0.775;exitY=0.95;exitDx=0;exitDy=0;exitPerimeter=0;" edge="1" parent="1" source="Jd2IswQnN16Qa1Pe7M-v-7">
          <mxGeometry relative="1" as="geometry">
            <mxPoint x="-161" y="268" as="targetPoint" />
            <mxPoint x="-429" y="44" as="sourcePoint" />
          </mxGeometry>
        </mxCell>
        <mxCell id="Jd2IswQnN16Qa1Pe7M-v-19" value="Processor" style="ellipse;whiteSpace=wrap;html=1;aspect=fixed;" vertex="1" parent="1">
          <mxGeometry x="-169" y="256" width="80" height="80" as="geometry" />
        </mxCell>
        <mxCell id="Jd2IswQnN16Qa1Pe7M-v-20" style="edgeStyle=none;curved=1;rounded=0;orthogonalLoop=1;jettySize=auto;html=1;exitX=1;exitY=1;exitDx=0;exitDy=0;entryX=0.049;entryY=0.058;entryDx=0;entryDy=0;entryPerimeter=0;fontSize=12;startSize=8;endSize=8;" edge="1" parent="1" source="Jd2IswQnN16Qa1Pe7M-v-19" target="Jd2IswQnN16Qa1Pe7M-v-14">
          <mxGeometry relative="1" as="geometry" />
        </mxCell>
        <mxCell id="Jd2IswQnN16Qa1Pe7M-v-21" value="" style="swimlane;startSize=0;" vertex="1" parent="1">
          <mxGeometry x="-312" y="260" width="69" height="72" as="geometry" />
        </mxCell>
        <mxCell id="Jd2IswQnN16Qa1Pe7M-v-22" value="Notif" style="text;html=1;align=center;verticalAlign=middle;resizable=0;points=[];autosize=1;strokeColor=none;fillColor=none;fontSize=16;" vertex="1" parent="1">
          <mxGeometry x="-312.5" y="276.5" width="51" height="31" as="geometry" />
        </mxCell>
        <mxCell id="Jd2IswQnN16Qa1Pe7M-v-23" value="P&lt;span style=&quot;background-color: initial;&quot;&gt;ublic API&lt;/span&gt;" style="ellipse;whiteSpace=wrap;html=1;aspect=fixed;" vertex="1" parent="1">
          <mxGeometry x="-458" y="-422" width="92" height="92" as="geometry" />
        </mxCell>
        <mxCell id="Jd2IswQnN16Qa1Pe7M-v-25" value="CloudFlare" style="rounded=0;whiteSpace=wrap;html=1;" vertex="1" parent="1">
          <mxGeometry x="-535.5" y="-276" width="247" height="57" as="geometry" />
        </mxCell>
        <mxCell id="Jd2IswQnN16Qa1Pe7M-v-27" value="Processed Data&lt;br&gt;&lt;br&gt;Users&lt;br&gt;&lt;br&gt;Companies" style="shape=cylinder3;whiteSpace=wrap;html=1;boundedLbl=1;backgroundOutline=1;size=15;" vertex="1" parent="1">
          <mxGeometry x="1729" y="315" width="234" height="206" as="geometry" />
        </mxCell>
        <mxCell id="Jd2IswQnN16Qa1Pe7M-v-29" value="CloudFlare" style="rounded=0;whiteSpace=wrap;html=1;" vertex="1" parent="1">
          <mxGeometry x="882" y="-261" width="247" height="57" as="geometry" />
        </mxCell>
        <mxCell id="Jd2IswQnN16Qa1Pe7M-v-30" value="Web 1" style="ellipse;whiteSpace=wrap;html=1;aspect=fixed;" vertex="1" parent="1">
          <mxGeometry x="832" y="-135" width="80" height="80" as="geometry" />
        </mxCell>
        <mxCell id="Jd2IswQnN16Qa1Pe7M-v-31" value="Web 2" style="ellipse;whiteSpace=wrap;html=1;aspect=fixed;" vertex="1" parent="1">
          <mxGeometry x="953" y="-135" width="80" height="80" as="geometry" />
        </mxCell>
        <mxCell id="Jd2IswQnN16Qa1Pe7M-v-32" value="Web 3" style="ellipse;whiteSpace=wrap;html=1;aspect=fixed;" vertex="1" parent="1">
          <mxGeometry x="1078" y="-135" width="80" height="80" as="geometry" />
        </mxCell>
        <mxCell id="Jd2IswQnN16Qa1Pe7M-v-33" value="Horizontal scale, min and max number of instances based on CPU use" style="text;html=1;align=center;verticalAlign=middle;whiteSpace=wrap;rounded=0;fontSize=16;" vertex="1" parent="1">
          <mxGeometry x="1230" y="-133" width="235" height="78" as="geometry" />
        </mxCell>
        <mxCell id="Jd2IswQnN16Qa1Pe7M-v-35" value="API 1" style="ellipse;whiteSpace=wrap;html=1;aspect=fixed;" vertex="1" parent="1">
          <mxGeometry x="1646" y="-135" width="80" height="80" as="geometry" />
        </mxCell>
        <mxCell id="Jd2IswQnN16Qa1Pe7M-v-42" style="edgeStyle=none;curved=1;rounded=0;orthogonalLoop=1;jettySize=auto;html=1;fontSize=12;startSize=8;endSize=8;" edge="1" parent="1" source="Jd2IswQnN16Qa1Pe7M-v-36" target="Jd2IswQnN16Qa1Pe7M-v-27">
          <mxGeometry relative="1" as="geometry" />
        </mxCell>
        <mxCell id="Jd2IswQnN16Qa1Pe7M-v-36" value="API 3" style="ellipse;whiteSpace=wrap;html=1;aspect=fixed;" vertex="1" parent="1">
          <mxGeometry x="1778.5" y="-132" width="80" height="80" as="geometry" />
        </mxCell>
        <mxCell id="Jd2IswQnN16Qa1Pe7M-v-43" style="edgeStyle=none;curved=1;rounded=0;orthogonalLoop=1;jettySize=auto;html=1;fontSize=12;startSize=8;endSize=8;" edge="1" parent="1" source="Jd2IswQnN16Qa1Pe7M-v-37" target="Jd2IswQnN16Qa1Pe7M-v-27">
          <mxGeometry relative="1" as="geometry" />
        </mxCell>
        <mxCell id="Jd2IswQnN16Qa1Pe7M-v-37" value="API 4" style="ellipse;whiteSpace=wrap;html=1;aspect=fixed;" vertex="1" parent="1">
          <mxGeometry x="1912" y="-132" width="80" height="80" as="geometry" />
        </mxCell>
        <mxCell id="Jd2IswQnN16Qa1Pe7M-v-38" value="Horizontal scale, min and max number of instances based on CPU use" style="text;html=1;align=center;verticalAlign=middle;whiteSpace=wrap;rounded=0;fontSize=16;" vertex="1" parent="1">
          <mxGeometry x="2076" y="-131" width="235" height="78" as="geometry" />
        </mxCell>
        <mxCell id="Jd2IswQnN16Qa1Pe7M-v-39" value="Admin API (Back-end)" style="rounded=0;whiteSpace=wrap;html=1;" vertex="1" parent="1">
          <mxGeometry x="1720.5" y="-372" width="196" height="60" as="geometry" />
        </mxCell>
        <mxCell id="Jd2IswQnN16Qa1Pe7M-v-40" value="CloudFlare" style="rounded=0;whiteSpace=wrap;html=1;" vertex="1" parent="1">
          <mxGeometry x="1698" y="-249" width="247" height="57" as="geometry" />
        </mxCell>
        <mxCell id="Jd2IswQnN16Qa1Pe7M-v-41" style="edgeStyle=none;curved=1;rounded=0;orthogonalLoop=1;jettySize=auto;html=1;entryX=0.145;entryY=0;entryDx=0;entryDy=4.35;entryPerimeter=0;fontSize=12;startSize=8;endSize=8;" edge="1" parent="1" source="Jd2IswQnN16Qa1Pe7M-v-35" target="Jd2IswQnN16Qa1Pe7M-v-27">
          <mxGeometry relative="1" as="geometry" />
        </mxCell>
      </root>
    </mxGraphModel>
  </diagram>
</mxfile>
